<svg version="1.1" viewBox="0.0 0.0 960.0 960.0" fill="none" stroke="none" stroke-linecap="square" stroke-miterlimit="10" xmlns:xlink="http://www.w3.org/1999/xlink" xmlns="http://www.w3.org/2000/svg"><clipPath id="p.0"><path d="m0 0l960.0 0l0 960.0l-960.0 0l0 -960.0z" clip-rule="nonzero"/></clipPath><g clip-path="url(#p.0)"><path fill="#000000" fill-opacity="0.0" d="m0 0l960.0 0l0 960.0l-960.0 0z" fill-rule="evenodd"/><path fill="#ff9900" d="m455.2756 0l53.455353 0l0 0c249.229 0 451.26904 202.04004 451.26904 451.26904l0 1.3215027l0 0l-126.18109 126.18112l-126.18109 -126.18112l0 0l0 -1.3215027l0 0c0 -109.85321 -89.05365 -198.90685 -198.90686 -198.90685l-53.455353 0z" fill-rule="evenodd"/><path fill="#ff0000" d="m0 505.95276l0 -54.992126l0 0c0 -249.05869 201.90195 -450.96063 450.96063 -450.96063l0 0l0 0l126.48816 126.48819l-126.48816 126.48819l0 0l0 0l0 0c-109.34369 0 -197.98425 88.640564 -197.98425 197.98425l0 54.992126z" fill-rule="evenodd"/><path fill="#00ff00" d="m504.7244 960.0l-53.455353 0l0 0c-249.229 0 -451.26904 -202.04004 -451.26904 -451.26904l0 -1.3215027l0 0l126.1811 -126.18112l126.1811 126.18112l0 0l0 1.3215027l0 0c0 109.85321 89.053635 198.90686 198.90685 198.90686l53.455353 0z" fill-rule="evenodd"/><path fill="#4a86e8" d="m960.0 454.04724l0 54.992126l0 0c0 249.05865 -201.90198 450.96063 -450.96063 450.96063l0 0l0 0l-126.48819 -126.48816l126.48819 -126.48822l0 0l0 0l0 0c109.34369 0 197.98425 -88.640564 197.98425 -197.98425l0 -54.992126z" fill-rule="evenodd"/><path fill="#ff9900" d="m960.0 452.68298l0 0l0 0l-126.188965 122.456665l-126.188965 -122.456665l0 0l0 0z" fill-rule="evenodd"/></g></svg>