<svg version="1.1" viewBox="0.0 0.0 960.0 960.0" fill="none" stroke="none" stroke-linecap="square" stroke-miterlimit="10" xmlns:xlink="http://www.w3.org/1999/xlink" xmlns="http://www.w3.org/2000/svg"><clipPath id="p.0"><path d="m0 0l960.0 0l0 960.0l-960.0 0l0 -960.0z" clip-rule="nonzero"/></clipPath><g clip-path="url(#p.0)"><path fill="#000000" fill-opacity="0.0" d="m0 0l960.0 0l0 960.0l-960.0 0z" fill-rule="evenodd"/><path fill="#ffd966" d="m64.30119 719.98193l0 0c-132.45905 -229.4455 -53.97387 -522.8219 175.35652 -655.4801l118.07263 204.11584l0 0c-116.669556 67.488525 -156.5981 216.74084 -89.21088 333.46896z" fill-rule="evenodd"/><path stroke="#ffd966" stroke-width="1.0" stroke-linejoin="round" stroke-linecap="butt" d="m64.30119 719.98193l0 0c-132.45905 -229.4455 -53.97387 -522.8219 175.35652 -655.4801l118.07263 204.11584l0 0c-116.669556 67.488525 -156.5981 216.74084 -89.21088 333.46896z" fill-rule="evenodd"/><path fill="#0000ff" d="m240.01807 64.30119l0 0c229.4455 -132.45905 522.8219 -53.97387 655.4801 175.35652l-204.11578 118.07263l0 0c-67.48859 -116.669556 -216.74088 -156.5981 -333.469 -89.21088z" fill-rule="evenodd"/><path stroke="#0000ff" stroke-width="1.0" stroke-linejoin="round" stroke-linecap="butt" d="m240.01807 64.30119l0 0c229.4455 -132.45905 522.8219 -53.97387 655.4801 175.35652l-204.11578 118.07263l0 0c-67.48859 -116.669556 -216.74088 -156.5981 -333.469 -89.21088z" fill-rule="evenodd"/><path fill="#93c47d" d="m895.6988 240.01807l0 0c132.45905 229.4455 53.973877 522.8219 -175.3565 655.4801l-118.07263 -204.11578l0 0c116.669556 -67.48859 156.59808 -216.74088 89.21088 -333.469z" fill-rule="evenodd"/><path stroke="#93c47d" stroke-width="1.0" stroke-linejoin="round" stroke-linecap="butt" d="m895.6988 240.01807l0 0c132.45905 229.4455 53.973877 522.8219 -175.3565 655.4801l-118.07263 -204.11578l0 0c116.669556 -67.48859 156.59808 -216.74088 89.21088 -333.469z" fill-rule="evenodd"/><path fill="#ff0000" d="m719.98193 895.6988l0 0c-229.4455 132.45905 -522.8219 53.973877 -655.4801 -175.3565l204.11584 -118.07263l0 0c67.488525 116.669556 216.74084 156.59808 333.46896 89.21088z" fill-rule="evenodd"/><path stroke="#ff0000" stroke-width="1.0" stroke-linejoin="round" stroke-linecap="butt" d="m719.98193 895.6988l0 0c-229.4455 132.45905 -522.8219 53.973877 -655.4801 -175.3565l204.11584 -118.07263l0 0c67.488525 116.669556 216.74084 156.59808 333.46896 89.21088z" fill-rule="evenodd"/><path fill="#ffd966" d="m239.5916 64.54309l0 0l135.98427 57.62204l-18.283478 146.56693l0 0z" fill-rule="evenodd"/><path stroke="#ffd966" stroke-width="1.0" stroke-linejoin="round" stroke-linecap="butt" d="m239.5916 64.54309l0 0l135.98427 57.62204l-18.283478 146.56693l0 0z" fill-rule="evenodd"/><path fill="#0000ff" d="m895.6024 239.84401l0 0l-57.62207 135.98424l-146.5669 -18.283447l0 0z" fill-rule="evenodd"/><path stroke="#0000ff" stroke-width="1.0" stroke-linejoin="round" stroke-linecap="butt" d="m895.6024 239.84401l0 0l-57.62207 135.98424l-146.5669 -18.283447l0 0z" fill-rule="evenodd"/><path fill="#93c47d" d="m720.02185 895.67975l0 0l-135.98425 -57.62207l18.283447 -146.5669l0 0z" fill-rule="evenodd"/><path stroke="#93c47d" stroke-width="1.0" stroke-linejoin="round" stroke-linecap="butt" d="m720.02185 895.67975l0 0l-135.98425 -57.62207l18.283447 -146.5669l0 0z" fill-rule="evenodd"/><path fill="#ff0000" d="m64.14199 719.7126l0 0l57.622047 -135.98425l146.56693 18.283447l0 0z" fill-rule="evenodd"/><path stroke="#ff0000" stroke-width="1.0" stroke-linejoin="round" stroke-linecap="butt" d="m64.14199 719.7126l0 0l57.622047 -135.98425l146.56693 18.283447l0 0z" fill-rule="evenodd"/><path fill="#000000" fill-opacity="0.0" d="m240.0 264.00787l480.0 0l0 480.0l-480.0 0z" fill-rule="evenodd"/><path fill="#0000ff" d="m418.5734 634.5679q-19.953125 0 -31.0625 -11.109375q-11.09375 -11.109375 -11.09375 -31.046875l0 -235.73438q0 -20.40625 10.875 -31.28125q10.875 -10.875 30.828125 -10.875q20.40625 0 31.046875 10.875q10.65625 10.875 10.65625 31.28125l0 208.53125l110.609344 0q17.234375 0 26.515625 8.84375q9.296875 8.84375 9.296875 25.609375q0 16.765625 -9.296875 25.84375q-9.28125 9.0625 -26.515625 9.0625l-151.85934 0z" fill-rule="nonzero"/><path fill="#000000" d="m495.15952 428.37927l62.410553 0l0 0c8.175903 0 14.803833 9.8749695 14.803833 22.056366c0 12.1813965 -6.6279297 22.056396 -14.803833 22.056396l-62.410553 0l0 0c-8.175964 0 -14.803864 -9.875 -14.803864 -22.056396c0 -12.1813965 6.627899 -22.056366 14.803864 -22.056366z" fill-rule="evenodd"/><path fill="#000000" d="m528.53876 314.06036l62.410583 0l0 0c8.175903 0 14.803833 9.8749695 14.803833 22.056396c0 12.1813965 -6.6279297 22.056366 -14.803833 22.056366l-62.410583 0l0 0c-8.175903 0 -14.803833 -9.8749695 -14.803833 -22.056366c0 -12.181427 6.6279297 -22.056396 14.803833 -22.056396z" fill-rule="evenodd"/></g></svg>