<svg version="1.1" viewBox="0.0 0.0 960.0 960.0" fill="none" stroke="none" stroke-linecap="square" stroke-miterlimit="10" xmlns:xlink="http://www.w3.org/1999/xlink" xmlns="http://www.w3.org/2000/svg"><clipPath id="p.0"><path d="m0 0l960.0 0l0 960.0l-960.0 0l0 -960.0z" clip-rule="nonzero"/></clipPath><g clip-path="url(#p.0)"><path fill="#000000" fill-opacity="0.0" d="m0 0l960.0 0l0 960.0l-960.0 0z" fill-rule="evenodd"/><path fill="#ffd966" d="m1.0053644E-4 480.31067l0 0c-0.17147219 -264.93387 214.33882 -479.9086 479.27246 -480.31012l0.35736084 235.80453l0 0c-134.78232 0.20426941 -243.9123 109.570496 -243.82506 244.35297z" fill-rule="evenodd"/><path stroke="#ffd966" stroke-width="1.0" stroke-linejoin="round" stroke-linecap="butt" d="m1.0053644E-4 480.31067l0 0c-0.17147219 -264.93387 214.33882 -479.9086 479.27246 -480.31012l0.35736084 235.80453l0 0c-134.78232 0.20426941 -243.9123 109.570496 -243.82506 244.35297z" fill-rule="evenodd"/><path fill="#0000ff" d="m479.68933 1.0053644E-4l0 0c264.9339 -0.17147219 479.90863 214.33882 480.31012 479.27246l-235.8045 0.35736084l0 0c-0.20428467 -134.78232 -109.57056 -243.9123 -244.353 -243.82506z" fill-rule="evenodd"/><path stroke="#0000ff" stroke-width="1.0" stroke-linejoin="round" stroke-linecap="butt" d="m479.68933 1.0053644E-4l0 0c264.9339 -0.17147219 479.90863 214.33882 480.31012 479.27246l-235.8045 0.35736084l0 0c-0.20428467 -134.78232 -109.57056 -243.9123 -244.353 -243.82506z" fill-rule="evenodd"/><path fill="#93c47d" d="m959.9999 479.68933l0 0c0.17150879 264.9339 -214.3388 479.90863 -479.27243 480.31012l-0.35736084 -235.8045l0 0c134.78232 -0.20428467 243.91232 -109.57056 243.82504 -244.353z" fill-rule="evenodd"/><path stroke="#93c47d" stroke-width="1.0" stroke-linejoin="round" stroke-linecap="butt" d="m959.9999 479.68933l0 0c0.17150879 264.9339 -214.3388 479.90863 -479.27243 480.31012l-0.35736084 -235.8045l0 0c134.78232 -0.20428467 243.91232 -109.57056 243.82504 -244.353z" fill-rule="evenodd"/><path fill="#ff0000" d="m480.31067 959.9999l0 0c-264.93387 0.17150879 -479.9086 -214.3388 -480.31012 -479.27243l235.80453 -0.35736084l0 0c0.20426941 134.78232 109.570496 243.91232 244.35297 243.82504z" fill-rule="evenodd"/><path stroke="#ff0000" stroke-width="1.0" stroke-linejoin="round" stroke-linecap="butt" d="m480.31067 959.9999l0 0c-264.93387 0.17150879 -479.9086 -214.3388 -480.31012 -479.27243l235.80453 -0.35736084l0 0c0.20426941 134.78232 109.570496 243.91232 244.35297 243.82504z" fill-rule="evenodd"/><path fill="#ffd966" d="m479.19684 0l0 0l89.03937 117.84252l-89.03937 117.84252l0 0z" fill-rule="evenodd"/><path stroke="#ffd966" stroke-width="1.0" stroke-linejoin="round" stroke-linecap="butt" d="m479.19684 0l0 0l89.03937 117.84252l-89.03937 117.84252l0 0z" fill-rule="evenodd"/><path fill="#0000ff" d="m960.0 479.4882l0 0l-117.84253 89.0394l-117.84253 -89.0394l0 0z" fill-rule="evenodd"/><path stroke="#0000ff" stroke-width="1.0" stroke-linejoin="round" stroke-linecap="butt" d="m960.0 479.4882l0 0l-117.84253 89.0394l-117.84253 -89.0394l0 0z" fill-rule="evenodd"/><path fill="#93c47d" d="m480.35696 960.0l0 0l-89.03937 -117.84253l89.03937 -117.84253l0 0z" fill-rule="evenodd"/><path stroke="#93c47d" stroke-width="1.0" stroke-linejoin="round" stroke-linecap="butt" d="m480.35696 960.0l0 0l-89.03937 -117.84253l89.03937 -117.84253l0 0z" fill-rule="evenodd"/><path fill="#ff0000" d="m0 480.0l0 0l117.84252 -89.03937l117.84252 89.03937l0 0z" fill-rule="evenodd"/><path stroke="#ff0000" stroke-width="1.0" stroke-linejoin="round" stroke-linecap="butt" d="m0 480.0l0 0l117.84252 -89.03937l117.84252 89.03937l0 0z" fill-rule="evenodd"/><path fill="#000000" fill-opacity="0.0" d="m240.0 264.00787l480.0 0l0 480.0l-480.0 0z" fill-rule="evenodd"/><path fill="#0000ff" d="m418.5734 634.5679q-19.953125 0 -31.0625 -11.109375q-11.09375 -11.109375 -11.09375 -31.046875l0 -235.73438q0 -20.40625 10.875 -31.28125q10.875 -10.875 30.828125 -10.875q20.40625 0 31.046875 10.875q10.65625 10.875 10.65625 31.28125l0 208.53125l110.609344 0q17.234375 0 26.515625 8.84375q9.296875 8.84375 9.296875 25.609375q0 16.765625 -9.296875 25.84375q-9.28125 9.0625 -26.515625 9.0625l-151.85934 0z" fill-rule="nonzero"/><path fill="#000000" d="m495.15952 428.37927l62.410553 0l0 0c8.175903 0 14.803833 9.8749695 14.803833 22.056366c0 12.1813965 -6.6279297 22.056396 -14.803833 22.056396l-62.410553 0l0 0c-8.175964 0 -14.803864 -9.875 -14.803864 -22.056396c0 -12.1813965 6.627899 -22.056366 14.803864 -22.056366z" fill-rule="evenodd"/><path fill="#000000" d="m528.53876 314.06036l62.410583 0l0 0c8.175903 0 14.803833 9.8749695 14.803833 22.056396c0 12.1813965 -6.6279297 22.056366 -14.803833 22.056366l-62.410583 0l0 0c-8.175903 0 -14.803833 -9.8749695 -14.803833 -22.056366c0 -12.181427 6.6279297 -22.056396 14.803833 -22.056396z" fill-rule="evenodd"/></g></svg>